<svg xmlns="http://www.w3.org/2000/svg" xmlns:xlink="http://www.w3.org/1999/xlink" width="1420" height="754.72"><rect width="1420" height="754.72" rx="5" ry="5" class="a"/><svg y="0%" x="0%"><circle cx="20" cy="20" r="6" fill="#ff5f58"/><circle cx="40" cy="20" r="6" fill="#ffbd2e"/><circle cx="60" cy="20" r="6" fill="#18c132"/></svg><svg height="694.72" viewBox="0 0 138 69.472" width="1380" x="15" xmlns="http://www.w3.org/2000/svg" xmlns:xlink="http://www.w3.org/1999/xlink" y="50"><style>@keyframes j{0%{transform:translateX(0)}.14%{transform:translateX(-138px)}.15%{transform:translateX(-276px)}7.8%{transform:translateX(-414px)}8.55%{transform:translateX(-552px)}9.48%{transform:translateX(-690px)}10.31%{transform:translateX(-828px)}13.79%{transform:translateX(-966px)}14.22%{transform:translateX(-1104px)}15.67%{transform:translateX(-1242px)}20.61%{transform:translateX(-1380px)}21.22%{transform:translateX(-1518px)}23.29%{transform:translateX(-1656px)}29.25%{transform:translateX(-1794px)}30.61%{transform:translateX(-1932px)}32.29%{transform:translateX(-2070px)}35.72%{transform:translateX(-2208px)}38.1%{transform:translateX(-2346px)}42.22%{transform:translateX(-2484px)}42.9%{transform:translateX(-2622px)}43.76%{transform:translateX(-2760px)}44.08%{transform:translateX(-2898px)}44.73%{transform:translateX(-3036px)}45.26%{transform:translateX(-3174px)}45.66%{transform:translateX(-3312px)}46.08%{transform:translateX(-3450px)}48.26%{transform:translateX(-3588px)}49.92%{transform:translateX(-4002px)}49.93%{transform:translateX(-4140px)}50.52%{transform:translateX(-4416px)}51.11%{transform:translateX(-4692px)}51.69%{transform:translateX(-4830px)}52.28%{transform:translateX(-4968px)}52.29%{transform:translateX(-5106px)}52.87%{transform:translateX(-5244px)}53.46%{transform:translateX(-5382px)}54.05%{transform:translateX(-5520px)}54.64%{transform:translateX(-5658px)}55.23%{transform:translateX(-5796px)}55.82%{transform:translateX(-5934px)}56.41%{transform:translateX(-6072px)}56.62%{transform:translateX(-6210px)}60.32%{transform:translateX(-6348px)}60.88%{transform:translateX(-6486px)}61.72%{transform:translateX(-6624px)}62.55%{transform:translateX(-6762px)}62.97%{transform:translateX(-6900px)}63.43%{transform:translateX(-7038px)}64.69%{transform:translateX(-7176px)}65.65%{transform:translateX(-7314px)}66.16%{transform:translateX(-7452px)}66.57%{transform:translateX(-7590px)}66.89%{transform:translateX(-7728px)}67.53%{transform:translateX(-7866px)}67.99%{transform:translateX(-8004px)}68.53%{transform:translateX(-8142px)}69.45%{transform:translateX(-8280px)}69.87%{transform:translateX(-8418px)}70.16%{transform:translateX(-8556px)}70.5%{transform:translateX(-8694px)}71.03%{transform:translateX(-8832px)}71.84%{transform:translateX(-8970px)}72.45%{transform:translateX(-9108px)}73.38%{transform:translateX(-9246px)}74.9%{transform:translateX(-9384px)}78.2%{transform:translateX(-9660px)}78.21%{transform:translateX(-9798px)}78.8%{transform:translateX(-9936px)}79.39%{transform:translateX(-10074px)}79.98%{transform:translateX(-10350px)}80.57%{transform:translateX(-10488px)}81.16%{transform:translateX(-10626px)}81.75%{transform:translateX(-10764px)}82.34%{transform:translateX(-10902px)}82.93%{transform:translateX(-11040px)}83.51%{transform:translateX(-11178px)}83.77%{transform:translateX(-11316px)}92.36%{transform:translateX(-11592px)}92.38%{transform:translateX(-11730px)}to{transform:translateX(-11868px)}}.a{fill:#282d35}.f,.g{fill:#b9c0cb;white-space:pre}.g{fill:#b9bfca}</style><g font-family="Monaco,Consolas,Menlo,'Bitstream Vera Sans Mono','Powerline Symbols',monospace" font-size="1.67"><defs><symbol id="1"><text y="1.67" class="f">The</text><text x="4.008" y="1.67" class="f">default</text><text x="12.024" y="1.67" class="f">interactive</text><text x="24.048" y="1.67" class="f">shell</text><text x="30.06" y="1.67" class="f">is</text><text x="33.066" y="1.67" class="f">now</text><text x="37.074" y="1.67" class="f">zsh.</text></symbol><symbol id="2"><text y="1.67" class="f">To</text><text x="3.006" y="1.67" class="f">update</text><text x="10.02" y="1.67" class="f">your</text><text x="15.03" y="1.67" class="f">account</text><text x="23.046" y="1.67" class="f">to</text><text x="26.052" y="1.67" class="f">use</text><text x="30.06" y="1.67" class="f">zsh,</text><text x="35.07" y="1.67" class="f">please</text><text x="42.084" y="1.67" class="f">run</text><text x="46.092" y="1.67" class="f">`chsh</text><text x="52.104" y="1.67" class="f">-s</text><text x="55.11" y="1.67" class="f">/bin/zsh`.</text></symbol><symbol id="3"><text y="1.67" class="f">For</text><text x="4.008" y="1.67" class="f">more</text><text x="9.018" y="1.67" class="f">details,</text><text x="18.036" y="1.67" class="f">please</text><text x="25.05" y="1.67" class="f">visit</text><text x="31.062" y="1.67" class="f">https://support.apple.com/kb/HT208050.</text></symbol><symbol id="4"><text y="1.67" class="f">bash-3.2$</text></symbol><symbol id="5"><text y="1.67" class="f">bash-3.2$</text><text x="10.02" y="1.67" class="f">go</text></symbol><symbol id="6"><text y="1.67" class="f">bash-3.2$</text><text x="10.02" y="1.67" class="f">go</text><text x="13.026" y="1.67" class="f">run</text></symbol><symbol id="7"><text y="1.67" class="f">bash-3.2$</text><text x="10.02" y="1.67" class="f">go</text><text x="13.026" y="1.67" class="f">run</text><text x="17.034" y="1.67" class="f">cmd/client-cli/main.go</text></symbol><symbol id="8"><text y="1.67" class="f">&gt;</text></symbol><symbol id="9"><text y="1.67" class="f">&gt;</text><text x="2.004" y="1.67" class="f">Hi</text></symbol><symbol id="10"><text y="1.67" class="f">&gt;</text><text x="2.004" y="1.67" class="f">Hi</text><text x="5.01" y="1.67" class="f">there!</text></symbol><symbol id="11"><text y="1.67" class="g">⠋</text></symbol><symbol id="12"><text y="1.67" class="g">⠙</text></symbol><symbol id="13"><text y="1.67" class="g">⠹</text></symbol><symbol id="14"><text y="1.67" class="g">⠸</text></symbol><symbol id="15"><text y="1.67" class="g">⠼</text></symbol><symbol id="16"><text y="1.67" class="g">⠴</text></symbol><symbol id="17"><text y="1.67" class="g">⠦</text></symbol><symbol id="18"><text y="1.67" class="g">⠧</text></symbol><symbol id="19"><text y="1.67" class="g">⠇</text></symbol><symbol id="20"><text y="1.67" class="g">⠏</text></symbol><symbol id="21"><text y="1.67" class="f">&gt;&gt;</text><text x="3.006" y="1.67" class="f">Hello</text><text x="9.018" y="1.67" class="f">again!</text><text x="16.032" y="1.67" class="f">What&apos;s</text><text x="23.046" y="1.67" class="f">on</text><text x="26.052" y="1.67" class="f">your</text><text x="31.062" y="1.67" class="f">mind?</text></symbol><symbol id="22"><text y="1.67" class="f">&gt;</text><text x="2.004" y="1.67" class="f">Do</text></symbol><symbol id="23"><text y="1.67" class="f">&gt;</text><text x="2.004" y="1.67" class="f">Do</text><text x="5.01" y="1.67" class="f">you</text></symbol><symbol id="24"><text y="1.67" class="f">&gt;</text><text x="2.004" y="1.67" class="f">Do</text><text x="5.01" y="1.67" class="f">you</text><text x="9.018" y="1.67" class="f">have</text></symbol><symbol id="25"><text y="1.67" class="f">&gt;</text><text x="2.004" y="1.67" class="f">Do</text><text x="5.01" y="1.67" class="f">you</text><text x="9.018" y="1.67" class="f">have</text><text x="14.028" y="1.67" class="f">a</text></symbol><symbol id="26"><text y="1.67" class="f">&gt;</text><text x="2.004" y="1.67" class="f">Do</text><text x="5.01" y="1.67" class="f">you</text><text x="9.018" y="1.67" class="f">have</text><text x="14.028" y="1.67" class="f">a</text><text x="16.032" y="1.67" class="f">nice</text></symbol><symbol id="27"><text y="1.67" class="f">&gt;</text><text x="2.004" y="1.67" class="f">Do</text><text x="5.01" y="1.67" class="f">you</text><text x="9.018" y="1.67" class="f">have</text><text x="14.028" y="1.67" class="f">a</text><text x="16.032" y="1.67" class="f">nice</text><text x="21.042" y="1.67" class="f">day?</text></symbol><symbol id="28"><text y="1.67" class="f">&gt;&gt;</text><text x="3.006" y="1.67" class="f">That&apos;s</text><text x="10.02" y="1.67" class="f">very</text><text x="15.03" y="1.67" class="f">kind</text><text x="20.04" y="1.67" class="f">of</text><text x="23.046" y="1.67" class="f">you</text><text x="27.054" y="1.67" class="f">to</text><text x="30.06" y="1.67" class="f">ask</text><text x="34.068" y="1.67" class="f">again!</text><text x="41.082" y="1.67" class="f">I</text><text x="43.086" y="1.67" class="f">don&apos;t</text><text x="49.098" y="1.67" class="f">experience</text><text x="60.12" y="1.67" class="f">days,</text><text x="66.132" y="1.67" class="f">but</text><text x="70.14" y="1.67" class="f">I&apos;m</text><text x="74.148" y="1.67" class="f">always</text><text x="81.162" y="1.67" class="f">here</text><text x="86.172" y="1.67" class="f">and</text><text x="90.18" y="1.67" class="f">ready</text><text x="96.192" y="1.67" class="f">to</text><text x="99.198" y="1.67" class="f">help</text><text x="104.208" y="1.67" class="f">you,</text><text x="109.218" y="1.67" class="f">which</text><text x="115.23" y="1.67" class="f">is</text><text x="118.236" y="1.67" class="f">the</text><text x="122.244" y="1.67" class="f">best</text><text x="127.254" y="1.67" class="f">state</text><text x="133.266" y="1.67" class="f">for</text><text x="137.274" y="1.67" class="f">m</text></symbol><symbol id="29"><text y="1.67" class="f">e</text><text x="2.004" y="1.67" class="f">to</text><text x="5.01" y="1.67" class="f">be</text><text x="8.016" y="1.67" class="f">in!</text></symbol><symbol id="30"><text y="1.67" class="f">How</text><text x="4.008" y="1.67" class="f">are</text><text x="8.016" y="1.67" class="f">you</text><text x="12.024" y="1.67" class="f">doing</text><text x="18.036" y="1.67" class="f">today?</text></symbol><symbol id="31"><text y="1.67" class="f">&gt;</text><text x="2.004" y="1.67" class="f">^Csignal:</text><text x="12.024" y="1.67" class="f">interrupt</text></symbol><symbol id="a"><path fill="transparent" d="M0 0h138v32H0z"/></symbol><symbol id="b"><path fill="#6f7683" d="M0 0h1.102v2.171H0z"/></symbol></defs><path class="a" d="M0 0h138v69.472H0z"/><g style="animation-duration:17.1522s;animation-iteration-count:infinite;animation-name:j;animation-timing-function:steps(1,end)"><svg width="12006"><svg><use xlink:href="#a"/><use xlink:href="#b" x="-.004"/></svg><svg x="138"><use xlink:href="#a"/><use xlink:href="#b" x="-.004" y="8.659"/><use xlink:href="#1" y="2.171"/><use xlink:href="#2" y="4.342"/><use xlink:href="#3" y="6.513"/></svg><svg x="276"><use xlink:href="#a"/><use xlink:href="#b" x="9.996" y="8.659"/><use xlink:href="#1" y="2.171"/><use xlink:href="#2" y="4.342"/><use xlink:href="#3" y="6.513"/><use xlink:href="#4" y="8.684"/></svg><svg x="414"><use xlink:href="#a"/><use xlink:href="#b" x="10.996" y="8.659"/><use xlink:href="#1" y="2.171"/><use xlink:href="#2" y="4.342"/><use xlink:href="#3" y="6.513"/><text y="10.354" class="f">bash-3.2$</text><text x="10.02" y="10.354" class="f">g</text></svg><svg x="552"><use xlink:href="#a"/><use xlink:href="#b" x="11.996" y="8.659"/><use xlink:href="#1" y="2.171"/><use xlink:href="#2" y="4.342"/><use xlink:href="#3" y="6.513"/><use xlink:href="#5" y="8.684"/></svg><svg x="690"><use xlink:href="#a"/><use xlink:href="#b" x="12.996" y="8.659"/><use xlink:href="#1" y="2.171"/><use xlink:href="#2" y="4.342"/><use xlink:href="#3" y="6.513"/><use xlink:href="#5" y="8.684"/></svg><svg x="828"><use xlink:href="#a"/><use xlink:href="#b" x="13.996" y="8.659"/><use xlink:href="#1" y="2.171"/><use xlink:href="#2" y="4.342"/><use xlink:href="#3" y="6.513"/><text y="10.354" class="f">bash-3.2$</text><text x="10.02" y="10.354" class="f">go</text><text x="13.026" y="10.354" class="f">r</text></svg><svg x="966"><use xlink:href="#a"/><use xlink:href="#b" x="14.996" y="8.659"/><use xlink:href="#1" y="2.171"/><use xlink:href="#2" y="4.342"/><use xlink:href="#3" y="6.513"/><text y="10.354" class="f">bash-3.2$</text><text x="10.02" y="10.354" class="f">go</text><text x="13.026" y="10.354" class="f">ru</text></svg><svg x="1104"><use xlink:href="#a"/><use xlink:href="#b" x="15.996" y="8.659"/><use xlink:href="#1" y="2.171"/><use xlink:href="#2" y="4.342"/><use xlink:href="#3" y="6.513"/><use xlink:href="#6" y="8.684"/></svg><svg x="1242"><use xlink:href="#a"/><use xlink:href="#b" x="16.996" y="8.659"/><use xlink:href="#1" y="2.171"/><use xlink:href="#2" y="4.342"/><use xlink:href="#3" y="6.513"/><use xlink:href="#6" y="8.684"/></svg><svg x="1380"><use xlink:href="#a"/><use xlink:href="#b" x="17.996" y="8.659"/><use xlink:href="#1" y="2.171"/><use xlink:href="#2" y="4.342"/><use xlink:href="#3" y="6.513"/><text y="10.354" class="f">bash-3.2$</text><text x="10.02" y="10.354" class="f">go</text><text x="13.026" y="10.354" class="f">run</text><text x="17.034" y="10.354" class="f">c</text></svg><svg x="1518"><use xlink:href="#a"/><use xlink:href="#b" x="18.996" y="8.659"/><use xlink:href="#1" y="2.171"/><use xlink:href="#2" y="4.342"/><use xlink:href="#3" y="6.513"/><text y="10.354" class="f">bash-3.2$</text><text x="10.02" y="10.354" class="f">go</text><text x="13.026" y="10.354" class="f">run</text><text x="17.034" y="10.354" class="f">cm</text></svg><svg x="1656"><use xlink:href="#a"/><use xlink:href="#b" x="20.996" y="8.659"/><use xlink:href="#1" y="2.171"/><use xlink:href="#2" y="4.342"/><use xlink:href="#3" y="6.513"/><text y="10.354" class="f">bash-3.2$</text><text x="10.02" y="10.354" class="f">go</text><text x="13.026" y="10.354" class="f">run</text><text x="17.034" y="10.354" class="f">cmd/</text></svg><svg x="1794"><use xlink:href="#a"/><use xlink:href="#b" x="21.996" y="8.659"/><use xlink:href="#1" y="2.171"/><use xlink:href="#2" y="4.342"/><use xlink:href="#3" y="6.513"/><text y="10.354" class="f">bash-3.2$</text><text x="10.02" y="10.354" class="f">go</text><text x="13.026" y="10.354" class="f">run</text><text x="17.034" y="10.354" class="f">cmd/c</text></svg><svg x="1932"><use xlink:href="#a"/><use xlink:href="#b" x="31.996" y="8.659"/><use xlink:href="#1" y="2.171"/><use xlink:href="#2" y="4.342"/><use xlink:href="#3" y="6.513"/><text y="10.354" class="f">bash-3.2$</text><text x="10.02" y="10.354" class="f">go</text><text x="13.026" y="10.354" class="f">run</text><text x="17.034" y="10.354" class="f">cmd/client-cli/</text></svg><svg x="2070"><use xlink:href="#a"/><use xlink:href="#b" x="39.996" y="8.659"/><use xlink:href="#1" y="2.171"/><use xlink:href="#2" y="4.342"/><use xlink:href="#3" y="6.513"/><use xlink:href="#7" y="8.684"/></svg><svg x="2208"><use xlink:href="#a"/><use xlink:href="#b" x="-.004" y="10.83"/><use xlink:href="#1" y="2.171"/><use xlink:href="#2" y="4.342"/><use xlink:href="#3" y="6.513"/><use xlink:href="#7" y="8.684"/></svg><svg x="2346"><use xlink:href="#a"/><use xlink:href="#b" x="1.996" y="10.83"/><use xlink:href="#1" y="2.171"/><use xlink:href="#2" y="4.342"/><use xlink:href="#3" y="6.513"/><use xlink:href="#7" y="8.684"/><use xlink:href="#8" y="10.855"/></svg><svg x="2484"><use xlink:href="#a"/><use xlink:href="#b" x="2.996" y="10.83"/><use xlink:href="#1" y="2.171"/><use xlink:href="#2" y="4.342"/><use xlink:href="#3" y="6.513"/><use xlink:href="#7" y="8.684"/><text y="12.525" class="f">&gt;</text><text x="2.004" y="12.525" class="f">H</text></svg><svg x="2622"><use xlink:href="#a"/><use xlink:href="#b" x="3.996" y="10.83"/><use xlink:href="#1" y="2.171"/><use xlink:href="#2" y="4.342"/><use xlink:href="#3" y="6.513"/><use xlink:href="#7" y="8.684"/><use xlink:href="#9" y="10.855"/></svg><svg x="2760"><use xlink:href="#a"/><use xlink:href="#b" x="4.996" y="10.83"/><use xlink:href="#1" y="2.171"/><use xlink:href="#2" y="4.342"/><use xlink:href="#3" y="6.513"/><use xlink:href="#7" y="8.684"/><use xlink:href="#9" y="10.855"/></svg><svg x="2898"><use xlink:href="#a"/><use xlink:href="#b" x="5.996" y="10.83"/><use xlink:href="#1" y="2.171"/><use xlink:href="#2" y="4.342"/><use xlink:href="#3" y="6.513"/><use xlink:href="#7" y="8.684"/><text y="12.525" class="f">&gt;</text><text x="2.004" y="12.525" class="f">Hi</text><text x="5.01" y="12.525" class="f">t</text></svg><svg x="3036"><use xlink:href="#a"/><use xlink:href="#b" x="6.996" y="10.83"/><use xlink:href="#1" y="2.171"/><use xlink:href="#2" y="4.342"/><use xlink:href="#3" y="6.513"/><use xlink:href="#7" y="8.684"/><text y="12.525" class="f">&gt;</text><text x="2.004" y="12.525" class="f">Hi</text><text x="5.01" y="12.525" class="f">th</text></svg><svg x="3174"><use xlink:href="#a"/><use xlink:href="#b" x="7.996" y="10.83"/><use xlink:href="#1" y="2.171"/><use xlink:href="#2" y="4.342"/><use xlink:href="#3" y="6.513"/><use xlink:href="#7" y="8.684"/><text y="12.525" class="f">&gt;</text><text x="2.004" y="12.525" class="f">Hi</text><text x="5.01" y="12.525" class="f">the</text></svg><svg x="3312"><use xlink:href="#a"/><use xlink:href="#b" x="8.996" y="10.83"/><use xlink:href="#1" y="2.171"/><use xlink:href="#2" y="4.342"/><use xlink:href="#3" y="6.513"/><use xlink:href="#7" y="8.684"/><text y="12.525" class="f">&gt;</text><text x="2.004" y="12.525" class="f">Hi</text><text x="5.01" y="12.525" class="f">ther</text></svg><svg x="3450"><use xlink:href="#a"/><use xlink:href="#b" x="9.996" y="10.83"/><use xlink:href="#1" y="2.171"/><use xlink:href="#2" y="4.342"/><use xlink:href="#3" y="6.513"/><use xlink:href="#7" y="8.684"/><text y="12.525" class="f">&gt;</text><text x="2.004" y="12.525" class="f">Hi</text><text x="5.01" y="12.525" class="f">there</text></svg><svg x="3588"><use xlink:href="#a"/><use xlink:href="#b" x="10.996" y="10.83"/><use xlink:href="#1" y="2.171"/><use xlink:href="#2" y="4.342"/><use xlink:href="#3" y="6.513"/><use xlink:href="#7" y="8.684"/><use xlink:href="#10" y="10.855"/></svg><svg x="3726"><use xlink:href="#a"/><use xlink:href="#b" x="-.004" y="13.001"/><use xlink:href="#1" y="2.171"/><use xlink:href="#2" y="4.342"/><use xlink:href="#3" y="6.513"/><use xlink:href="#7" y="8.684"/><use xlink:href="#10" y="10.855"/></svg><svg x="3864"><use xlink:href="#a"/><use xlink:href="#1" y="2.171"/><use xlink:href="#2" y="4.342"/><use xlink:href="#3" y="6.513"/><use xlink:href="#7" y="8.684"/><use xlink:href="#10" y="10.855"/></svg><svg x="4002"><use xlink:href="#a"/><use xlink:href="#1" y="2.171"/><use xlink:href="#2" y="4.342"/><use xlink:href="#3" y="6.513"/><use xlink:href="#7" y="8.684"/><use xlink:href="#10" y="10.855"/></svg><svg x="4140"><use xlink:href="#a"/><use xlink:href="#1" y="2.171"/><use xlink:href="#2" y="4.342"/><use xlink:href="#3" y="6.513"/><use xlink:href="#7" y="8.684"/><use xlink:href="#10" y="10.855"/><use xlink:href="#11" y="13.026"/></svg><svg x="4278"><use xlink:href="#a"/><use xlink:href="#1" y="2.171"/><use xlink:href="#2" y="4.342"/><use xlink:href="#3" y="6.513"/><use xlink:href="#7" y="8.684"/><use xlink:href="#10" y="10.855"/></svg><svg x="4416"><use xlink:href="#a"/><use xlink:href="#1" y="2.171"/><use xlink:href="#2" y="4.342"/><use xlink:href="#3" y="6.513"/><use xlink:href="#7" y="8.684"/><use xlink:href="#10" y="10.855"/><use xlink:href="#12" y="13.026"/></svg><svg x="4554"><use xlink:href="#a"/><use xlink:href="#1" y="2.171"/><use xlink:href="#2" y="4.342"/><use xlink:href="#3" y="6.513"/><use xlink:href="#7" y="8.684"/><use xlink:href="#10" y="10.855"/></svg><svg x="4692"><use xlink:href="#a"/><use xlink:href="#1" y="2.171"/><use xlink:href="#2" y="4.342"/><use xlink:href="#3" y="6.513"/><use xlink:href="#7" y="8.684"/><use xlink:href="#10" y="10.855"/><use xlink:href="#13" y="13.026"/></svg><svg x="4830"><use xlink:href="#a"/><use xlink:href="#1" y="2.171"/><use xlink:href="#2" y="4.342"/><use xlink:href="#3" y="6.513"/><use xlink:href="#7" y="8.684"/><use xlink:href="#10" y="10.855"/><use xlink:href="#14" y="13.026"/></svg><svg x="4968"><use xlink:href="#a"/><use xlink:href="#1" y="2.171"/><use xlink:href="#2" y="4.342"/><use xlink:href="#3" y="6.513"/><use xlink:href="#7" y="8.684"/><use xlink:href="#10" y="10.855"/></svg><svg x="5106"><use xlink:href="#a"/><use xlink:href="#1" y="2.171"/><use xlink:href="#2" y="4.342"/><use xlink:href="#3" y="6.513"/><use xlink:href="#7" y="8.684"/><use xlink:href="#10" y="10.855"/><use xlink:href="#15" y="13.026"/></svg><svg x="5244"><use xlink:href="#a"/><use xlink:href="#1" y="2.171"/><use xlink:href="#2" y="4.342"/><use xlink:href="#3" y="6.513"/><use xlink:href="#7" y="8.684"/><use xlink:href="#10" y="10.855"/><use xlink:href="#16" y="13.026"/></svg><svg x="5382"><use xlink:href="#a"/><use xlink:href="#1" y="2.171"/><use xlink:href="#2" y="4.342"/><use xlink:href="#3" y="6.513"/><use xlink:href="#7" y="8.684"/><use xlink:href="#10" y="10.855"/><use xlink:href="#17" y="13.026"/></svg><svg x="5520"><use xlink:href="#a"/><use xlink:href="#1" y="2.171"/><use xlink:href="#2" y="4.342"/><use xlink:href="#3" y="6.513"/><use xlink:href="#7" y="8.684"/><use xlink:href="#10" y="10.855"/><use xlink:href="#18" y="13.026"/></svg><svg x="5658"><use xlink:href="#a"/><use xlink:href="#1" y="2.171"/><use xlink:href="#2" y="4.342"/><use xlink:href="#3" y="6.513"/><use xlink:href="#7" y="8.684"/><use xlink:href="#10" y="10.855"/><use xlink:href="#19" y="13.026"/></svg><svg x="5796"><use xlink:href="#a"/><use xlink:href="#1" y="2.171"/><use xlink:href="#2" y="4.342"/><use xlink:href="#3" y="6.513"/><use xlink:href="#7" y="8.684"/><use xlink:href="#10" y="10.855"/><use xlink:href="#20" y="13.026"/></svg><svg x="5934"><use xlink:href="#a"/><use xlink:href="#1" y="2.171"/><use xlink:href="#2" y="4.342"/><use xlink:href="#3" y="6.513"/><use xlink:href="#7" y="8.684"/><use xlink:href="#10" y="10.855"/><use xlink:href="#11" y="13.026"/></svg><svg x="6072"><use xlink:href="#a"/><use xlink:href="#1" y="2.171"/><use xlink:href="#2" y="4.342"/><use xlink:href="#3" y="6.513"/><use xlink:href="#7" y="8.684"/><use xlink:href="#10" y="10.855"/><use xlink:href="#12" y="13.026"/></svg><svg x="6210"><use xlink:href="#a"/><use xlink:href="#b" x="1.996" y="15.172"/><use xlink:href="#1" y="2.171"/><use xlink:href="#2" y="4.342"/><use xlink:href="#3" y="6.513"/><use xlink:href="#7" y="8.684"/><use xlink:href="#10" y="10.855"/><use xlink:href="#21" y="13.026"/><use xlink:href="#8" y="15.197"/></svg><svg x="6348"><use xlink:href="#a"/><use xlink:href="#b" x="2.996" y="15.172"/><use xlink:href="#1" y="2.171"/><use xlink:href="#2" y="4.342"/><use xlink:href="#3" y="6.513"/><use xlink:href="#7" y="8.684"/><use xlink:href="#10" y="10.855"/><use xlink:href="#21" y="13.026"/><text y="16.867" class="f">&gt;</text><text x="2.004" y="16.867" class="f">D</text></svg><svg x="6486"><use xlink:href="#a"/><use xlink:href="#b" x="3.996" y="15.172"/><use xlink:href="#1" y="2.171"/><use xlink:href="#2" y="4.342"/><use xlink:href="#3" y="6.513"/><use xlink:href="#7" y="8.684"/><use xlink:href="#10" y="10.855"/><use xlink:href="#21" y="13.026"/><use xlink:href="#22" y="15.197"/></svg><svg x="6624"><use xlink:href="#a"/><use xlink:href="#b" x="4.996" y="15.172"/><use xlink:href="#1" y="2.171"/><use xlink:href="#2" y="4.342"/><use xlink:href="#3" y="6.513"/><use xlink:href="#7" y="8.684"/><use xlink:href="#10" y="10.855"/><use xlink:href="#21" y="13.026"/><use xlink:href="#22" y="15.197"/></svg><svg x="6762"><use xlink:href="#a"/><use xlink:href="#b" x="5.996" y="15.172"/><use xlink:href="#1" y="2.171"/><use xlink:href="#2" y="4.342"/><use xlink:href="#3" y="6.513"/><use xlink:href="#7" y="8.684"/><use xlink:href="#10" y="10.855"/><use xlink:href="#21" y="13.026"/><text y="16.867" class="f">&gt;</text><text x="2.004" y="16.867" class="f">Do</text><text x="5.01" y="16.867" class="f">y</text></svg><svg x="6900"><use xlink:href="#a"/><use xlink:href="#b" x="6.996" y="15.172"/><use xlink:href="#1" y="2.171"/><use xlink:href="#2" y="4.342"/><use xlink:href="#3" y="6.513"/><use xlink:href="#7" y="8.684"/><use xlink:href="#10" y="10.855"/><use xlink:href="#21" y="13.026"/><text y="16.867" class="f">&gt;</text><text x="2.004" y="16.867" class="f">Do</text><text x="5.01" y="16.867" class="f">yo</text></svg><svg x="7038"><use xlink:href="#a"/><use xlink:href="#b" x="7.996" y="15.172"/><use xlink:href="#1" y="2.171"/><use xlink:href="#2" y="4.342"/><use xlink:href="#3" y="6.513"/><use xlink:href="#7" y="8.684"/><use xlink:href="#10" y="10.855"/><use xlink:href="#21" y="13.026"/><use xlink:href="#23" y="15.197"/></svg><svg x="7176"><use xlink:href="#a"/><use xlink:href="#b" x="8.996" y="15.172"/><use xlink:href="#1" y="2.171"/><use xlink:href="#2" y="4.342"/><use xlink:href="#3" y="6.513"/><use xlink:href="#7" y="8.684"/><use xlink:href="#10" y="10.855"/><use xlink:href="#21" y="13.026"/><use xlink:href="#23" y="15.197"/></svg><svg x="7314"><use xlink:href="#a"/><use xlink:href="#b" x="9.996" y="15.172"/><use xlink:href="#1" y="2.171"/><use xlink:href="#2" y="4.342"/><use xlink:href="#3" y="6.513"/><use xlink:href="#7" y="8.684"/><use xlink:href="#10" y="10.855"/><use xlink:href="#21" y="13.026"/><text y="16.867" class="f">&gt;</text><text x="2.004" y="16.867" class="f">Do</text><text x="5.01" y="16.867" class="f">you</text><text x="9.018" y="16.867" class="f">h</text></svg><svg x="7452"><use xlink:href="#a"/><use xlink:href="#b" x="10.996" y="15.172"/><use xlink:href="#1" y="2.171"/><use xlink:href="#2" y="4.342"/><use xlink:href="#3" y="6.513"/><use xlink:href="#7" y="8.684"/><use xlink:href="#10" y="10.855"/><use xlink:href="#21" y="13.026"/><text y="16.867" class="f">&gt;</text><text x="2.004" y="16.867" class="f">Do</text><text x="5.01" y="16.867" class="f">you</text><text x="9.018" y="16.867" class="f">ha</text></svg><svg x="7590"><use xlink:href="#a"/><use xlink:href="#b" x="11.996" y="15.172"/><use xlink:href="#1" y="2.171"/><use xlink:href="#2" y="4.342"/><use xlink:href="#3" y="6.513"/><use xlink:href="#7" y="8.684"/><use xlink:href="#10" y="10.855"/><use xlink:href="#21" y="13.026"/><text y="16.867" class="f">&gt;</text><text x="2.004" y="16.867" class="f">Do</text><text x="5.01" y="16.867" class="f">you</text><text x="9.018" y="16.867" class="f">hav</text></svg><svg x="7728"><use xlink:href="#a"/><use xlink:href="#b" x="12.996" y="15.172"/><use xlink:href="#1" y="2.171"/><use xlink:href="#2" y="4.342"/><use xlink:href="#3" y="6.513"/><use xlink:href="#7" y="8.684"/><use xlink:href="#10" y="10.855"/><use xlink:href="#21" y="13.026"/><use xlink:href="#24" y="15.197"/></svg><svg x="7866"><use xlink:href="#a"/><use xlink:href="#b" x="13.996" y="15.172"/><use xlink:href="#1" y="2.171"/><use xlink:href="#2" y="4.342"/><use xlink:href="#3" y="6.513"/><use xlink:href="#7" y="8.684"/><use xlink:href="#10" y="10.855"/><use xlink:href="#21" y="13.026"/><use xlink:href="#24" y="15.197"/></svg><svg x="8004"><use xlink:href="#a"/><use xlink:href="#b" x="14.996" y="15.172"/><use xlink:href="#1" y="2.171"/><use xlink:href="#2" y="4.342"/><use xlink:href="#3" y="6.513"/><use xlink:href="#7" y="8.684"/><use xlink:href="#10" y="10.855"/><use xlink:href="#21" y="13.026"/><use xlink:href="#25" y="15.197"/></svg><svg x="8142"><use xlink:href="#a"/><use xlink:href="#b" x="15.996" y="15.172"/><use xlink:href="#1" y="2.171"/><use xlink:href="#2" y="4.342"/><use xlink:href="#3" y="6.513"/><use xlink:href="#7" y="8.684"/><use xlink:href="#10" y="10.855"/><use xlink:href="#21" y="13.026"/><use xlink:href="#25" y="15.197"/></svg><svg x="8280"><use xlink:href="#a"/><use xlink:href="#b" x="16.996" y="15.172"/><use xlink:href="#1" y="2.171"/><use xlink:href="#2" y="4.342"/><use xlink:href="#3" y="6.513"/><use xlink:href="#7" y="8.684"/><use xlink:href="#10" y="10.855"/><use xlink:href="#21" y="13.026"/><text y="16.867" class="f">&gt;</text><text x="2.004" y="16.867" class="f">Do</text><text x="5.01" y="16.867" class="f">you</text><text x="9.018" y="16.867" class="f">have</text><text x="14.028" y="16.867" class="f">a</text><text x="16.032" y="16.867" class="f">n</text></svg><svg x="8418"><use xlink:href="#a"/><use xlink:href="#b" x="17.996" y="15.172"/><use xlink:href="#1" y="2.171"/><use xlink:href="#2" y="4.342"/><use xlink:href="#3" y="6.513"/><use xlink:href="#7" y="8.684"/><use xlink:href="#10" y="10.855"/><use xlink:href="#21" y="13.026"/><text y="16.867" class="f">&gt;</text><text x="2.004" y="16.867" class="f">Do</text><text x="5.01" y="16.867" class="f">you</text><text x="9.018" y="16.867" class="f">have</text><text x="14.028" y="16.867" class="f">a</text><text x="16.032" y="16.867" class="f">ni</text></svg><svg x="8556"><use xlink:href="#a"/><use xlink:href="#b" x="18.996" y="15.172"/><use xlink:href="#1" y="2.171"/><use xlink:href="#2" y="4.342"/><use xlink:href="#3" y="6.513"/><use xlink:href="#7" y="8.684"/><use xlink:href="#10" y="10.855"/><use xlink:href="#21" y="13.026"/><text y="16.867" class="f">&gt;</text><text x="2.004" y="16.867" class="f">Do</text><text x="5.01" y="16.867" class="f">you</text><text x="9.018" y="16.867" class="f">have</text><text x="14.028" y="16.867" class="f">a</text><text x="16.032" y="16.867" class="f">nic</text></svg><svg x="8694"><use xlink:href="#a"/><use xlink:href="#b" x="19.996" y="15.172"/><use xlink:href="#1" y="2.171"/><use xlink:href="#2" y="4.342"/><use xlink:href="#3" y="6.513"/><use xlink:href="#7" y="8.684"/><use xlink:href="#10" y="10.855"/><use xlink:href="#21" y="13.026"/><use xlink:href="#26" y="15.197"/></svg><svg x="8832"><use xlink:href="#a"/><use xlink:href="#b" x="20.996" y="15.172"/><use xlink:href="#1" y="2.171"/><use xlink:href="#2" y="4.342"/><use xlink:href="#3" y="6.513"/><use xlink:href="#7" y="8.684"/><use xlink:href="#10" y="10.855"/><use xlink:href="#21" y="13.026"/><use xlink:href="#26" y="15.197"/></svg><svg x="8970"><use xlink:href="#a"/><use xlink:href="#b" x="21.996" y="15.172"/><use xlink:href="#1" y="2.171"/><use xlink:href="#2" y="4.342"/><use xlink:href="#3" y="6.513"/><use xlink:href="#7" y="8.684"/><use xlink:href="#10" y="10.855"/><use xlink:href="#21" y="13.026"/><text y="16.867" class="f">&gt;</text><text x="2.004" y="16.867" class="f">Do</text><text x="5.01" y="16.867" class="f">you</text><text x="9.018" y="16.867" class="f">have</text><text x="14.028" y="16.867" class="f">a</text><text x="16.032" y="16.867" class="f">nice</text><text x="21.042" y="16.867" class="f">d</text></svg><svg x="9108"><use xlink:href="#a"/><use xlink:href="#b" x="22.996" y="15.172"/><use xlink:href="#1" y="2.171"/><use xlink:href="#2" y="4.342"/><use xlink:href="#3" y="6.513"/><use xlink:href="#7" y="8.684"/><use xlink:href="#10" y="10.855"/><use xlink:href="#21" y="13.026"/><text y="16.867" class="f">&gt;</text><text x="2.004" y="16.867" class="f">Do</text><text x="5.01" y="16.867" class="f">you</text><text x="9.018" y="16.867" class="f">have</text><text x="14.028" y="16.867" class="f">a</text><text x="16.032" y="16.867" class="f">nice</text><text x="21.042" y="16.867" class="f">da</text></svg><svg x="9246"><use xlink:href="#a"/><use xlink:href="#b" x="23.996" y="15.172"/><use xlink:href="#1" y="2.171"/><use xlink:href="#2" y="4.342"/><use xlink:href="#3" y="6.513"/><use xlink:href="#7" y="8.684"/><use xlink:href="#10" y="10.855"/><use xlink:href="#21" y="13.026"/><text y="16.867" class="f">&gt;</text><text x="2.004" y="16.867" class="f">Do</text><text x="5.01" y="16.867" class="f">you</text><text x="9.018" y="16.867" class="f">have</text><text x="14.028" y="16.867" class="f">a</text><text x="16.032" y="16.867" class="f">nice</text><text x="21.042" y="16.867" class="f">day</text></svg><svg x="9384"><use xlink:href="#a"/><use xlink:href="#b" x="24.996" y="15.172"/><use xlink:href="#1" y="2.171"/><use xlink:href="#2" y="4.342"/><use xlink:href="#3" y="6.513"/><use xlink:href="#7" y="8.684"/><use xlink:href="#10" y="10.855"/><use xlink:href="#21" y="13.026"/><use xlink:href="#27" y="15.197"/></svg><svg x="9522"><use xlink:href="#a"/><use xlink:href="#b" x="-.004" y="17.343"/><use xlink:href="#1" y="2.171"/><use xlink:href="#2" y="4.342"/><use xlink:href="#3" y="6.513"/><use xlink:href="#7" y="8.684"/><use xlink:href="#10" y="10.855"/><use xlink:href="#21" y="13.026"/><use xlink:href="#27" y="15.197"/></svg><svg x="9660"><use xlink:href="#a"/><use xlink:href="#1" y="2.171"/><use xlink:href="#2" y="4.342"/><use xlink:href="#3" y="6.513"/><use xlink:href="#7" y="8.684"/><use xlink:href="#10" y="10.855"/><use xlink:href="#21" y="13.026"/><use xlink:href="#27" y="15.197"/></svg><svg x="9798"><use xlink:href="#a"/><use xlink:href="#1" y="2.171"/><use xlink:href="#2" y="4.342"/><use xlink:href="#3" y="6.513"/><use xlink:href="#7" y="8.684"/><use xlink:href="#10" y="10.855"/><use xlink:href="#21" y="13.026"/><use xlink:href="#27" y="15.197"/><use xlink:href="#11" y="17.368"/></svg><svg x="9936"><use xlink:href="#a"/><use xlink:href="#1" y="2.171"/><use xlink:href="#2" y="4.342"/><use xlink:href="#3" y="6.513"/><use xlink:href="#7" y="8.684"/><use xlink:href="#10" y="10.855"/><use xlink:href="#21" y="13.026"/><use xlink:href="#27" y="15.197"/><use xlink:href="#12" y="17.368"/></svg><svg x="10074"><use xlink:href="#a"/><use xlink:href="#1" y="2.171"/><use xlink:href="#2" y="4.342"/><use xlink:href="#3" y="6.513"/><use xlink:href="#7" y="8.684"/><use xlink:href="#10" y="10.855"/><use xlink:href="#21" y="13.026"/><use xlink:href="#27" y="15.197"/><use xlink:href="#13" y="17.368"/></svg><svg x="10212"><use xlink:href="#a"/><use xlink:href="#1" y="2.171"/><use xlink:href="#2" y="4.342"/><use xlink:href="#3" y="6.513"/><use xlink:href="#7" y="8.684"/><use xlink:href="#10" y="10.855"/><use xlink:href="#21" y="13.026"/><use xlink:href="#27" y="15.197"/></svg><svg x="10350"><use xlink:href="#a"/><use xlink:href="#1" y="2.171"/><use xlink:href="#2" y="4.342"/><use xlink:href="#3" y="6.513"/><use xlink:href="#7" y="8.684"/><use xlink:href="#10" y="10.855"/><use xlink:href="#21" y="13.026"/><use xlink:href="#27" y="15.197"/><use xlink:href="#14" y="17.368"/></svg><svg x="10488"><use xlink:href="#a"/><use xlink:href="#1" y="2.171"/><use xlink:href="#2" y="4.342"/><use xlink:href="#3" y="6.513"/><use xlink:href="#7" y="8.684"/><use xlink:href="#10" y="10.855"/><use xlink:href="#21" y="13.026"/><use xlink:href="#27" y="15.197"/><use xlink:href="#15" y="17.368"/></svg><svg x="10626"><use xlink:href="#a"/><use xlink:href="#1" y="2.171"/><use xlink:href="#2" y="4.342"/><use xlink:href="#3" y="6.513"/><use xlink:href="#7" y="8.684"/><use xlink:href="#10" y="10.855"/><use xlink:href="#21" y="13.026"/><use xlink:href="#27" y="15.197"/><use xlink:href="#16" y="17.368"/></svg><svg x="10764"><use xlink:href="#a"/><use xlink:href="#1" y="2.171"/><use xlink:href="#2" y="4.342"/><use xlink:href="#3" y="6.513"/><use xlink:href="#7" y="8.684"/><use xlink:href="#10" y="10.855"/><use xlink:href="#21" y="13.026"/><use xlink:href="#27" y="15.197"/><use xlink:href="#17" y="17.368"/></svg><svg x="10902"><use xlink:href="#a"/><use xlink:href="#1" y="2.171"/><use xlink:href="#2" y="4.342"/><use xlink:href="#3" y="6.513"/><use xlink:href="#7" y="8.684"/><use xlink:href="#10" y="10.855"/><use xlink:href="#21" y="13.026"/><use xlink:href="#27" y="15.197"/><use xlink:href="#18" y="17.368"/></svg><svg x="11040"><use xlink:href="#a"/><use xlink:href="#1" y="2.171"/><use xlink:href="#2" y="4.342"/><use xlink:href="#3" y="6.513"/><use xlink:href="#7" y="8.684"/><use xlink:href="#10" y="10.855"/><use xlink:href="#21" y="13.026"/><use xlink:href="#27" y="15.197"/><use xlink:href="#19" y="17.368"/></svg><svg x="11178"><use xlink:href="#a"/><use xlink:href="#1" y="2.171"/><use xlink:href="#2" y="4.342"/><use xlink:href="#3" y="6.513"/><use xlink:href="#7" y="8.684"/><use xlink:href="#10" y="10.855"/><use xlink:href="#21" y="13.026"/><use xlink:href="#27" y="15.197"/><use xlink:href="#20" y="17.368"/></svg><svg x="11316"><use xlink:href="#a"/><use xlink:href="#b" x="1.996" y="26.027"/><use xlink:href="#1" y="2.171"/><use xlink:href="#2" y="4.342"/><use xlink:href="#3" y="6.513"/><use xlink:href="#7" y="8.684"/><use xlink:href="#10" y="10.855"/><use xlink:href="#21" y="13.026"/><use xlink:href="#27" y="15.197"/><use xlink:href="#28" y="17.368"/><use xlink:href="#29" y="19.539"/><use xlink:href="#30" y="23.881"/><use xlink:href="#8" y="26.052"/></svg><svg x="11454"><use xlink:href="#a"/><use xlink:href="#b" x="3.996" y="26.027"/><use xlink:href="#1" y="2.171"/><use xlink:href="#2" y="4.342"/><use xlink:href="#3" y="6.513"/><use xlink:href="#7" y="8.684"/><use xlink:href="#10" y="10.855"/><use xlink:href="#21" y="13.026"/><use xlink:href="#27" y="15.197"/><use xlink:href="#28" y="17.368"/><use xlink:href="#29" y="19.539"/><use xlink:href="#30" y="23.881"/><text y="27.722" class="f">&gt;</text><text x="2.004" y="27.722" class="f">^C</text></svg><svg x="11592"><use xlink:href="#a"/><use xlink:href="#b" x="-.004" y="28.198"/><use xlink:href="#1" y="2.171"/><use xlink:href="#2" y="4.342"/><use xlink:href="#3" y="6.513"/><use xlink:href="#7" y="8.684"/><use xlink:href="#10" y="10.855"/><use xlink:href="#21" y="13.026"/><use xlink:href="#27" y="15.197"/><use xlink:href="#28" y="17.368"/><use xlink:href="#29" y="19.539"/><use xlink:href="#30" y="23.881"/><use xlink:href="#31" y="26.052"/></svg><svg x="11730"><use xlink:href="#a"/><use xlink:href="#b" x="9.996" y="28.198"/><use xlink:href="#1" y="2.171"/><use xlink:href="#2" y="4.342"/><use xlink:href="#3" y="6.513"/><use xlink:href="#7" y="8.684"/><use xlink:href="#10" y="10.855"/><use xlink:href="#21" y="13.026"/><use xlink:href="#27" y="15.197"/><use xlink:href="#28" y="17.368"/><use xlink:href="#29" y="19.539"/><use xlink:href="#30" y="23.881"/><use xlink:href="#31" y="26.052"/><use xlink:href="#4" y="28.223"/></svg><svg x="11868"><use xlink:href="#a"/><use xlink:href="#b" x="-.004" y="30.369"/><use xlink:href="#1" y="2.171"/><use xlink:href="#2" y="4.342"/><use xlink:href="#3" y="6.513"/><use xlink:href="#7" y="8.684"/><use xlink:href="#10" y="10.855"/><use xlink:href="#21" y="13.026"/><use xlink:href="#27" y="15.197"/><use xlink:href="#28" y="17.368"/><use xlink:href="#29" y="19.539"/><use xlink:href="#30" y="23.881"/><use xlink:href="#31" y="26.052"/><text y="29.893" class="f">bash-3.2$</text><text x="10.02" y="29.893" class="f">exit</text></svg></svg></g></g></svg></svg>